<svg aria-hidden="true" style="position: absolute; width: 0; height: 0; overflow: hidden;" version="1.1" xmlns="http://www.w3.org/2000/svg" xmlns:xlink="http://www.w3.org/1999/xlink">
<defs>
<symbol id="icon-a-bottles" viewBox="0 0 32 32">
<path d="M8.739 12.049h-8.861c-0.273 0-0.493 0.211-0.493 0.472v2.834c0 0.261 0.22 0.473 0.493 0.473h0.492v10.863c0 0.261 0.22 0.473 0.493 0.473h6.891c0.272 0 0.493-0.211 0.493-0.473v-10.863h0.492c0.272 0 0.492-0.211 0.492-0.473v-2.833c0-0.261-0.22-0.473-0.492-0.473zM3.323 21.023v-0.945h2.953v-0.945h-2.953v-0.945h3.939v6.14h-3.939v-2.361h0.985v-0.945zM7.262 17.244h-4.431c-0.272 0-0.492 0.211-0.492 0.473v7.085c0 0.261 0.22 0.473 0.492 0.473h4.431v0.945h-5.909v-10.392h5.908zM8.246 14.883h-7.876v-1.889h7.877zM15.262 12.137v-3.453c0-0.269-0.22-0.487-0.493-0.487h-0.492v-2.431h0.985v-0.973h-5.415v0.973h3.446v2.431h-0.493c-0.001 0-0.002 0-0.003 0-0.269 0-0.488 0.218-0.489 0.487v3.453c-1.122 0.226-1.969 1.207-1.969 2.382v12.157c0 0.269 0.22 0.487 0.493 0.487h5.907c0.001 0 0.002 0 0.003 0 0.269 0 0.488-0.218 0.489-0.487v-12.157c0-1.173-0.847-2.156-1.969-2.382zM13.293 9.171h0.985v2.917h-0.985zM12.8 13.060h1.969c0.815 0 1.477 0.655 1.477 1.459v0.487h-4.923v-0.487c0-0.804 0.663-1.459 1.477-1.459zM16.247 24.245h-4.923v-0.971h1.969v-0.973h-1.969v-6.322h4.923zM11.323 26.19v-0.973h4.923v0.973zM27.847 11.444h-8.308c-0.256 0.004-0.461 0.212-0.461 0.469 0 0.003 0 0.006 0 0.008v-0 14.767c0 0.263 0.207 0.476 0.461 0.476h8.308c0.255 0 0.461-0.213 0.461-0.476v-14.767c0-0.002 0-0.005 0-0.008 0-0.256-0.206-0.465-0.461-0.469h-0zM27.385 26.21h-7.385v-13.813h7.385z"></path>
<path d="M6.769 21.117h-1.231v0.605h1.231zM15.385 22.327h-1.231v1.209h1.231zM13.847 21.117c1.187 0 2.153-0.949 2.153-2.116s-0.966-2.116-2.153-2.116c-1.188 0-2.154 0.949-2.154 2.116s0.966 2.116 2.153 2.116zM13.846 17.943c0.593 0 1.077 0.475 1.077 1.058s-0.483 1.058-1.077 1.058c-0.593 0-1.077-0.475-1.077-1.058s0.483-1.058 1.077-1.058zM22.539 16.28h2.307c0.891 0 1.616-0.677 1.616-1.511s-0.725-1.511-1.616-1.511h-2.307c-0.891 0-1.615 0.678-1.615 1.511s0.725 1.511 1.615 1.511zM25.539 14.77c0 0.357-0.311 0.647-0.693 0.647h-0.692v-1.295h0.692c0.382 0 0.693 0.291 0.693 0.648zM22.539 14.122h0.692v1.295h-0.692c-0.382 0-0.693-0.291-0.693-0.647s0.311-0.648 0.693-0.648zM22.539 21.117h2.307c0.891 0 1.616-0.813 1.616-1.813s-0.725-1.814-1.616-1.814h-2.307c-0.891 0-1.615 0.813-1.615 1.813s0.725 1.813 1.615 1.813zM25.539 19.303c0 0.428-0.311 0.777-0.693 0.777h-0.692v-1.553h0.692c0.382 0 0.693 0.349 0.693 0.777zM22.539 18.526h0.692v1.555h-0.692c-0.382 0-0.693-0.349-0.693-0.777s0.311-0.777 0.693-0.777zM22.539 25.349h2.307c0.891 0 1.616-0.813 1.616-1.813s-0.725-1.814-1.616-1.814h-2.307c-0.891 0-1.615 0.813-1.615 1.813s0.725 1.814 1.615 1.814zM25.539 23.536c0 0.428-0.311 0.777-0.693 0.777h-0.692v-1.555h0.692c0.382 0 0.693 0.349 0.693 0.777zM22.539 22.759h0.692v1.555h-0.692c-0.382 0-0.693-0.349-0.693-0.777s0.311-0.777 0.693-0.777z"></path>
</symbol>
<symbol id="icon-a-crown" viewBox="0 0 32 32">
<path d="M29.687 10.327c-0.237-0.219-0.539-0.371-0.874-0.424l-0.010-0.001c-0.071-0.011-0.153-0.017-0.237-0.017-0.261 0-0.508 0.062-0.727 0.172l0.009-0.004-6.313 3.080c-0.033 0.020-0.072 0.032-0.114 0.032-0.059 0-0.113-0.023-0.152-0.061l0 0c-0.024-0.023-0.043-0.049-0.057-0.079l-0.001-0.002-3.688-7.288c-0.148-0.299-0.365-0.545-0.631-0.724l-0.007-0.004c-0.25-0.166-0.556-0.266-0.886-0.267h-0c-0.33 0.001-0.637 0.101-0.893 0.271l0.006-0.004c-0.273 0.183-0.49 0.428-0.634 0.717l-0.005 0.011-3.687 7.287c-0.015 0.032-0.035 0.059-0.059 0.081l-0 0c-0.023 0.021-0.051 0.038-0.081 0.049l-0.002 0.001q-0.046 0.015-0.093 0.010c-0.034-0.003-0.064-0.014-0.091-0.031l0.001 0-6.313-3.080c-0.21-0.108-0.459-0.172-0.722-0.172-0.081 0-0.161 0.006-0.24 0.018l0.009-0.001c-0.344 0.053-0.647 0.204-0.884 0.424l0.001-0.001c-0.251 0.231-0.44 0.526-0.542 0.86l-0.004 0.014c-0.058 0.183-0.091 0.394-0.091 0.613 0 0.158 0.017 0.312 0.050 0.46l-0.003-0.014 3.189 14.891c0.053 0.251 0.153 0.489 0.293 0.697s0.316 0.383 0.519 0.513c0.267 0.18 0.575 0.275 0.888 0.275q0.241-0.003 0.475-0.069c2.671-0.846 5.743-1.333 8.928-1.333 3.169 0 6.226 0.483 9.101 1.378l-0.217-0.058c0.227 0.072 0.465 0.093 0.7 0.060 0.251-0.035 0.477-0.122 0.673-0.25l-0.006 0.004c0.21-0.136 0.384-0.308 0.519-0.509l0.004-0.006c0.141-0.209 0.243-0.447 0.297-0.701l3.175-14.891c0.033-0.139 0.052-0.298 0.052-0.461 0-0.211-0.032-0.415-0.091-0.607l0.004 0.015c-0.103-0.346-0.29-0.641-0.539-0.87l-0.001-0.001zM28.813 11.867l-3.188 14.891c-0.017 0.073-0.057 0.134-0.111 0.178l-0.001 0c-0.040 0.022-0.087 0.035-0.137 0.035-0.022 0-0.044-0.003-0.065-0.007l0.002 0c-2.786-0.881-5.99-1.389-9.313-1.389s-6.527 0.508-9.539 1.45l0.226-0.061c-0.021 0.007-0.044 0.011-0.069 0.011-0.048 0-0.092-0.015-0.128-0.040l0.001 0c-0.030-0.020-0.055-0.046-0.074-0.075l-0.001-0.001c-0.020-0.029-0.034-0.063-0.041-0.1l-0-0.002-3.187-14.891c-0.003-0.016-0.005-0.035-0.005-0.054 0-0.068 0.021-0.131 0.057-0.183l-0.001 0.001c0.023-0.032 0.053-0.058 0.087-0.077l0.001-0.001c0.032-0.017 0.069-0.028 0.109-0.030l0.001-0 0.1 0.027 6.325 3.093c0.208 0.106 0.454 0.168 0.714 0.168 0.198 0 0.388-0.036 0.563-0.102l-0.011 0.004c0.429-0.169 0.77-0.485 0.967-0.884l0.005-0.011 3.687-7.288c0.020-0.043 0.050-0.078 0.087-0.105l0.001-0.001c0.035-0.024 0.078-0.039 0.125-0.039s0.090 0.015 0.126 0.039l-0.001-0c0.038 0.027 0.068 0.062 0.087 0.104l0.001 0.002 3.687 7.287c0.211 0.422 0.558 0.741 0.973 0.895s0.867 0.128 1.265-0.069l6.325-3.093c0.030-0.016 0.066-0.025 0.103-0.025 0.062 0 0.118 0.025 0.159 0.065l-0-0c0.037 0.033 0.065 0.075 0.079 0.123l0 0.002c0.009 0.027 0.014 0.058 0.014 0.091 0 0.021-0.002 0.042-0.006 0.062l0-0.002zM20.75 22.315c-0.020 0.207-0.111 0.39-0.247 0.527l0-0c-0.129 0.129-0.306 0.211-0.502 0.215l-0.001 0h-0.075c-1.178-0.138-2.542-0.217-3.925-0.217s-2.747 0.079-4.089 0.232l0.164-0.015c-0.023 0.003-0.050 0.004-0.077 0.004-0.182 0-0.348-0.069-0.473-0.181l0.001 0.001c-0.153-0.139-0.255-0.332-0.276-0.549l-0-0.003c-0.002-0.022-0.003-0.049-0.003-0.075 0-0.199 0.065-0.383 0.174-0.532l-0.002 0.003c0.118-0.162 0.296-0.274 0.501-0.302l0.004-0c1.223-0.151 2.639-0.237 4.075-0.237s2.852 0.086 4.243 0.254l-0.168-0.016c0.196 0.024 0.375 0.131 0.501 0.297s0.188 0.38 0.173 0.596z"></path>
</symbol>
<symbol id="icon-arrow" viewBox="0 0 32 32">
<path d="M0.521 17.015c-0.322-0.322-0.52-0.766-0.52-1.257s0.199-0.935 0.52-1.257l11.314-11.314c0.325-0.346 0.785-0.561 1.296-0.561 0.982 0 1.778 0.796 1.778 1.778 0 0.511-0.216 0.972-0.561 1.296l-0.001 0.001-10.055 10.057 10.057 10.057c0.335 0.324 0.543 0.777 0.543 1.279 0 0.982-0.796 1.778-1.778 1.778-0.502 0-0.955-0.208-1.278-0.542l-0-0zM31.577 17.536h-29.799v-3.556h29.799z"></path>
</symbol>
<symbol id="icon-a-science" viewBox="0 0 32 32">
<path d="M16.061 1.4c-1.050 0-2.031 0.478-2.867 1.261s-1.551 1.873-2.148 3.195q-0.187 0.415-0.358 0.861c-0.218-0.038-0.535-0.081-0.855-0.114l-0.072-0.006c-0.301-0.033-0.667-0.057-1.036-0.066l-0.018-0c-1.027-0.025-1.965 0.080-2.787 0.329-1.096 0.333-2 0.943-2.525 1.852s-0.601 1.998-0.341 3.113c0.26 1.115 0.847 2.28 1.693 3.457q0.266 0.37 0.567 0.742c-0.168 0.206-0.354 0.447-0.534 0.693l-0.033 0.048c-0.846 1.177-1.433 2.342-1.693 3.457s-0.183 2.204 0.341 3.113c0.525 0.909 1.43 1.519 2.526 1.851s2.398 0.407 3.84 0.263q0.454-0.045 0.926-0.12 0.167 0.437 0.359 0.863c0.597 1.321 1.312 2.411 2.148 3.195s1.817 1.261 2.867 1.261 2.031-0.479 2.867-1.261c0.835-0.783 1.551-1.873 2.147-3.195q0.193-0.427 0.36-0.863 0.471 0.075 0.924 0.12c1.443 0.144 2.745 0.070 3.841-0.263 1.097-0.332 2.001-0.943 2.526-1.852s0.601-1.997 0.341-3.113c-0.26-1.115-0.847-2.28-1.693-3.457-0.212-0.294-0.398-0.536-0.59-0.772l0.024 0.031q0.294-0.363 0.567-0.742c0.847-1.177 1.433-2.342 1.693-3.457s0.184-2.204-0.341-3.113c-0.525-0.909-1.43-1.52-2.525-1.852-0.822-0.249-1.76-0.353-2.787-0.329-0.388 0.010-0.753 0.034-1.115 0.072l0.060-0.005q-0.453 0.045-0.926 0.12c-0.152-0.401-0.273-0.685-0.401-0.965l0.043 0.104c-0.597-1.321-1.312-2.412-2.148-3.195s-1.816-1.261-2.867-1.261zM16.061 2.567c0.7 0 1.387 0.308 2.068 0.946 0.68 0.638 1.331 1.603 1.881 2.823q0.134 0.299 0.255 0.603c-1.339 0.298-2.756 0.755-4.205 1.365-1.449-0.61-2.867-1.067-4.205-1.364q0.124-0.311 0.255-0.603c0.551-1.22 1.201-2.185 1.882-2.823s1.367-0.945 2.068-0.945zM8.336 7.695q0.17-0.002 0.343 0.003 0.467 0.010 0.965 0.060 0.32 0.032 0.652 0.080c-0.412 1.309-0.725 2.764-0.922 4.324-1.253 0.95-2.357 1.95-3.284 2.96q-0.204-0.257-0.395-0.523c-0.781-1.087-1.292-2.133-1.504-3.041s-0.135-1.657 0.215-2.263c0.35-0.607 0.96-1.047 1.853-1.318 0.586-0.178 1.287-0.273 2.077-0.28zM23.784 7.696c0.789 0.007 1.491 0.103 2.077 0.281 0.893 0.271 1.503 0.711 1.853 1.318s0.427 1.355 0.215 2.263-0.723 1.955-1.504 3.041q-0.192 0.266-0.395 0.524c-0.927-1.011-2.031-2.010-3.283-2.96-0.196-1.56-0.51-3.016-0.921-4.324q0.331-0.049 0.651-0.081c0.378-0.040 0.816-0.063 1.259-0.063 0.017 0 0.035 0 0.052 0h-0.003zM20.664 8.049c0.291 0.874 0.555 1.941 0.741 3.035l0.019 0.134c-1.102-0.756-2.374-1.502-3.698-2.158l-0.186-0.084c1.083-0.404 2.133-0.713 3.124-0.927zM11.457 8.049c0.99 0.213 2.040 0.523 3.123 0.927-1.51 0.74-2.781 1.486-3.993 2.313l0.111-0.071c0.205-1.227 0.469-2.294 0.805-3.328l-0.045 0.16zM16.060 9.577c1.161 0.515 2.105 1.003 3.018 1.539l-0.141-0.077c0.963 0.555 1.867 1.147 2.705 1.761 0.113 1.033 0.173 2.112 0.173 3.223 0 1.11-0.061 2.189-0.173 3.221-0.766 0.567-1.649 1.149-2.563 1.684l-0.142 0.077c-0.772 0.459-1.716 0.947-2.688 1.386l-0.189 0.076c-1.161-0.515-2.105-1.003-3.019-1.539l0.141 0.077c-1.055-0.611-1.938-1.193-2.787-1.818l0.083 0.058c-0.11-0.964-0.173-2.082-0.173-3.214 0-0.003 0-0.006 0-0.009v0c0-1.111 0.060-2.19 0.173-3.223 0.766-0.567 1.649-1.149 2.563-1.684l0.142-0.077c0.772-0.459 1.716-0.947 2.688-1.386l0.189-0.076zM16.139 11.335l-3.344 2.064 3.344 2.063 3.343-2.063zM9.217 13.781c-0.050 0.671-0.079 1.453-0.079 2.242s0.029 1.571 0.085 2.346l-0.006-0.104c-0.859-0.708-1.631-1.441-2.348-2.225l-0.016-0.017c0.733-0.801 1.505-1.534 2.325-2.211l0.039-0.031zM22.905 13.781c0.859 0.708 1.63 1.441 2.348 2.225l0.015 0.017c-0.733 0.801-1.505 1.534-2.325 2.21l-0.039 0.031c0.050-0.671 0.079-1.453 0.079-2.242s-0.029-1.571-0.085-2.345l0.006 0.104zM12.042 14.305v4.075l3.512 2.167v-4.074zM20.233 14.307l-3.511 2.167v4.073l3.511-2.167zM6.091 16.923c0.927 1.011 2.031 2.010 3.284 2.96 0.196 1.56 0.51 3.015 0.921 4.323q-0.331 0.048-0.651 0.080c-1.331 0.133-2.493 0.053-3.385-0.218s-1.503-0.711-1.853-1.318c-0.349-0.607-0.427-1.355-0.215-2.263s0.723-1.955 1.504-3.041q0.191-0.266 0.395-0.523zM26.030 16.923q0.207 0.262 0.395 0.523c0.781 1.087 1.292 2.133 1.504 3.041s0.135 1.657-0.215 2.263c-0.35 0.607-0.96 1.047-1.853 1.318s-2.053 0.351-3.385 0.218q-0.325-0.033-0.65-0.080c0.412-1.309 0.725-2.765 0.921-4.325 1.253-0.949 2.357-1.949 3.283-2.959zM21.425 20.829c-0.205 1.227-0.469 2.295-0.805 3.329l0.045-0.16c-1.225-0.271-2.269-0.59-3.278-0.979l0.155 0.052c1.51-0.741 2.782-1.486 3.994-2.313l-0.11 0.071zM10.698 20.829c1.101 0.756 2.372 1.501 3.696 2.158l0.186 0.084c-0.854 0.336-1.898 0.655-2.971 0.898l-0.152 0.029c-0.291-0.874-0.555-1.941-0.741-3.034l-0.019-0.134zM16.095 20.883l0.043 0.027 0.043-0.027zM16.060 23.743c1.449 0.61 2.867 1.067 4.206 1.364q-0.121 0.305-0.256 0.605c-0.551 1.219-1.201 2.185-1.882 2.823-0.68 0.638-1.367 0.945-2.067 0.945s-1.387-0.307-2.068-0.945-1.331-1.603-1.882-2.823q-0.134-0.3-0.256-0.605c1.339-0.297 2.756-0.754 4.205-1.364z"></path>
</symbol>
<symbol id="icon-facebook" viewBox="0 0 32 32">
<path d="M23.987 2.128c-1.176-0.133-2.539-0.208-3.92-0.208-0.046 0-0.091 0-0.137 0l0.007-0c-4.484 0-7.27 2.856-7.27 7.453v3.122h-3.767c0 0 0 0 0 0-0.368 0-0.666 0.298-0.667 0.666v5.134c0.001 0.368 0.299 0.666 0.667 0.666 0 0 0 0 0 0h3.767v10.294c0.001 0.368 0.298 0.665 0.666 0.666h5.304c0 0 0 0 0 0 0.368 0 0.666-0.298 0.667-0.666v-10.295h3.755c0.337-0.002 0.615-0.252 0.661-0.576l0-0.004 0.663-5.133c0.004-0.026 0.006-0.057 0.006-0.088 0-0.367-0.298-0.665-0.665-0.665-0.001 0-0.002 0-0.003 0h-4.417v-2.611c0-1.294 0.26-1.834 1.877-1.834h2.72c0.368-0.001 0.665-0.298 0.666-0.666v-4.594c-0.002-0.337-0.252-0.614-0.576-0.66l-0.004-0zM23.233 6.716l-2.053 0.001c-2.876 0-3.21 1.808-3.21 3.167v3.28c0.001 0.368 0.298 0.665 0.666 0.666h4.328l-0.492 3.8h-3.835c-0.368 0.001-0.666 0.299-0.666 0.667 0 0 0 0 0 0v0 10.29h-3.971v-10.29c0 0 0 0 0 0 0-0.368-0.299-0.667-0.667-0.667-0 0-0.001 0-0.001 0h-3.764v-3.8h3.765c0 0 0 0 0 0 0.368 0 0.666-0.298 0.667-0.666v-3.79c0-3.832 2.22-6.12 5.937-6.12 1.346 0 2.56 0.074 3.296 0.138z"></path>
</symbol>
<symbol id="icon-instagram" viewBox="0 0 32 32">
<path d="M16 10.25c-3.176 0-5.75 2.574-5.75 5.75s2.574 5.75 5.75 5.75v0c3.176 0 5.75-2.574 5.75-5.75s-2.574-5.75-5.75-5.75v0zM16 20.25c-2.347 0-4.25-1.903-4.25-4.25s1.903-4.25 4.25-4.25c2.347 0 4.25 1.903 4.25 4.25v0c-0.007 2.344-1.906 4.243-4.249 4.25h-0.001zM21.5 3.75h-11c-3.728 0-6.75 3.022-6.75 6.75v0 11c0 3.728 3.022 6.75 6.75 6.75v0h11c3.728 0 6.75-3.022 6.75-6.75v0-11c0-3.728-3.022-6.75-6.75-6.75v0zM26.75 21.5c0 2.899-2.351 5.25-5.25 5.25v0h-11c-2.899 0-5.25-2.351-5.25-5.25v0-11c0-2.899 2.351-5.25 5.25-5.25v0h11c2.899 0 5.25 2.351 5.25 5.25v0zM23.75 9.5c0 0.69-0.56 1.25-1.25 1.25s-1.25-0.56-1.25-1.25v0c0-0.69 0.56-1.25 1.25-1.25s1.25 0.56 1.25 1.25v0z"></path>
</symbol>
<symbol id="icon-telephone" viewBox="0 0 32 32">
<path d="M27.655 22.957l-0.173-0.216c-1.372-1.734-2.52-2.637-3.503-2.756-0.85-0.116-1.673 0.472-2.548 1.078l-0.935 0.584c-0.092 0.048-0.2 0.093-0.312 0.128l-0.014 0.004c-0.547 0.154-1.927 0.245-2.708-0.47-0.91-0.832-2.32-2.354-3.418-3.685-1.048-1.377-2.2-3.095-2.801-4.176-0.508-0.916-0.083-2.197 0.201-2.672 0.056-0.093 0.13-0.185 0.21-0.276l0.825-0.761c0.012-0.012 0.017-0.027 0.028-0.038 0.008-0.008 0.021-0.005 0.030-0.012 0.745-0.628 1.514-1.274 1.62-2.105 0.123-0.976-0.483-2.296-1.858-4.030l-0.168-0.215c-0.851-1.091-2.137-2.74-3.985-2.469-0.727 0.108-1.376 0.356-2.046 0.776-0.006 0.004-0.010 0.012-0.016 0.016-0.005 0.004-0.012 0.004-0.017 0.008l-0.932 0.69c-0.010 0.006-0.015 0.018-0.024 0.026-0.007 0.006-0.017 0.008-0.025 0.014q-0.162 0.136-0.323 0.28c-0.945 0.843-2.992 3.29-1.596 7.815 0.901 2.923 2.76 6.333 5.388 9.883l-0.025 0.021 1.449 1.805 0.012-0.009c2.85 3.37 5.75 5.976 8.407 7.553 1.773 1.054 3.322 1.402 4.597 1.402 1.677 0 2.879-0.603 3.481-0.995l0.379-0.253c0.043-0.030 0.073-0.071 0.104-0.108l0.825-0.622c0.010-0.008 0.015-0.018 0.024-0.026 0.004-0.004 0.010-0.003 0.016-0.007 0.587-0.536 0.994-1.097 1.276-1.763 0.732-1.705-0.578-3.338-1.445-4.42zM28.12 26.958c-0.22 0.517-0.541 0.957-1.005 1.384l-1.228 0.924c-1.112 0.722-3.49 1.616-6.943-0.435-2.657-1.577-5.582-4.244-8.461-7.712l-0.779-0.984c-2.71-3.595-4.617-7.037-5.517-9.955-1.17-3.793 0.304-5.828 1.29-6.706q0.15-0.135 0.3-0.259l0.003-0.004 0.895-0.663c0.464-0.308 1.013-0.528 1.605-0.621l0.023-0.003c1.239-0.186 2.247 1.12 2.987 2.070l0.173 0.22c1.536 1.937 1.684 2.858 1.636 3.234-0.053 0.418-0.688 0.952-1.248 1.423l-0.079 0.067-0.006 0.009-0.012 0.007-0.852 0.788c-0.006 0.005-0.008 0.012-0.014 0.018s-0.016 0.010-0.021 0.016c-0.121 0.133-0.232 0.28-0.33 0.437l-0.007 0.013c-0.48 0.801-0.931 2.457-0.218 3.738 0.623 1.12 1.808 2.89 2.898 4.319 1.138 1.381 2.59 2.95 3.532 3.81 0.705 0.643 1.686 0.86 2.536 0.86 0.454 0 0.872-0.063 1.188-0.153q0.249-0.073 0.516-0.204c0.010-0.005 0.016-0.014 0.026-0.021 0.006-0.003 0.014-0.001 0.019-0.005l0.99-0.619c0.031-0.021 0.053-0.050 0.080-0.076l0.011 0.013c0.61-0.422 1.304-0.918 1.739-0.846 0.385 0.046 1.26 0.417 2.799 2.36l0.177 0.222c0.75 0.935 1.776 2.215 1.297 3.334z"></path>
</symbol>
<symbol id="icon-menu" viewBox="0 0 32 32">
<path d="M29.333 24.007c0 0.733-0.595 1.327-1.327 1.327h-10.68c-0.733 0-1.327-0.594-1.327-1.327s0.594-1.327 1.327-1.327h10.68c0.733 0 1.327 0.593 1.327 1.327zM29.333 16c0 0.733-0.595 1.327-1.327 1.327h-24.013c-0.733 0-1.327-0.594-1.327-1.327s0.594-1.327 1.327-1.327h24.013c0.733 0 1.327 0.595 1.327 1.327zM28.007 9.32c0.733 0 1.327-0.594 1.327-1.327s-0.594-1.327-1.327-1.327h-16.013c-0.733 0-1.327 0.594-1.327 1.327s0.594 1.327 1.327 1.327v0z"></path>
</symbol>
<symbol id="icon-close" viewBox="0 0 32 32">
  <path
    stroke="currentColor"
    fill="none"
    stroke-linejoin="miter"
    stroke-linecap="round"
    stroke-miterlimit="4"
    stroke-width="4.5714"
    d="M2.286 2.286l13.714 13.714M16 16l13.714-13.714M16 16l-13.714 13.714M16 16l13.714 13.714">
  </path>
</symbol>
</defs>
</svg>
